<svg width="102" height="22" viewBox="0 0 102 22" fill="none" xmlns="http://www.w3.org/2000/svg">
<path d="M42.8096 12.1064H41.0342V16H38.248V4.04688H43.4863C44.1133 4.04688 44.6904 4.14648 45.2178 4.3457C45.7451 4.53906 46.1992 4.81445 46.5801 5.17188C46.9668 5.52344 47.2656 5.94824 47.4766 6.44629C47.6934 6.93848 47.8018 7.48633 47.8018 8.08984C47.8018 8.51172 47.749 8.91016 47.6436 9.28516C47.5381 9.6543 47.3887 9.99121 47.1953 10.2959C47.002 10.6006 46.7676 10.8701 46.4922 11.1045C46.2168 11.3389 45.9092 11.5352 45.5693 11.6934L48.0918 16H44.8926L42.8096 12.1064ZM43.3721 9.71582C43.6006 9.71582 43.8145 9.67773 44.0137 9.60156C44.2129 9.51953 44.3857 9.4082 44.5322 9.26758C44.6846 9.12695 44.8018 8.95703 44.8838 8.75781C44.9717 8.55859 45.0156 8.33594 45.0156 8.08984C45.0156 7.84961 44.9717 7.62988 44.8838 7.43066C44.8018 7.22559 44.6846 7.0498 44.5322 6.90332C44.3857 6.75684 44.2129 6.64258 44.0137 6.56055C43.8145 6.47852 43.6006 6.4375 43.3721 6.4375H41.0342V9.71582H43.3721ZM49.3311 11.4473C49.3311 10.7793 49.4541 10.1523 49.7002 9.56641C49.9463 8.97461 50.292 8.45898 50.7373 8.01953C51.1885 7.58008 51.7217 7.23438 52.3369 6.98242C52.958 6.72461 53.6436 6.5957 54.3936 6.5957C55.1494 6.5957 55.8379 6.72461 56.459 6.98242C57.0859 7.23438 57.6221 7.58008 58.0674 8.01953C58.5186 8.45898 58.8672 8.97461 59.1133 9.56641C59.3652 10.1523 59.4912 10.7793 59.4912 11.4473C59.4912 11.6348 59.4824 11.7812 59.4648 11.8867C59.4531 11.9922 59.4385 12.0977 59.4209 12.2031H52.0293C52.1055 12.4902 52.2227 12.748 52.3809 12.9766C52.5449 13.2051 52.7324 13.4014 52.9434 13.5654C53.1602 13.7236 53.3916 13.8467 53.6377 13.9346C53.8896 14.0225 54.1475 14.0664 54.4111 14.0664C54.8389 14.0664 55.2109 13.9756 55.5273 13.7939C55.8438 13.6123 56.084 13.3809 56.248 13.0996H59.1836C59.0488 13.498 58.8438 13.8906 58.5684 14.2773C58.293 14.6582 57.9531 14.998 57.5488 15.2969C57.1445 15.5957 56.6758 15.8359 56.1426 16.0176C55.6152 16.1992 55.0322 16.29 54.3936 16.29C53.6494 16.29 52.9668 16.1641 52.3457 15.9121C51.7246 15.6543 51.1914 15.3057 50.7461 14.8662C50.3008 14.4268 49.9521 13.9141 49.7002 13.3281C49.4541 12.7363 49.3311 12.1094 49.3311 11.4473ZM54.4111 8.74902C53.8428 8.74902 53.3623 8.89258 52.9697 9.17969C52.5771 9.4668 52.293 9.84473 52.1172 10.3135H56.5996C56.4297 9.85059 56.1602 9.47559 55.791 9.18848C55.4219 8.89551 54.9619 8.74902 54.4111 8.74902ZM61.1436 11.4473C61.1436 10.7793 61.2578 10.1523 61.4863 9.56641C61.7148 8.97461 62.04 8.45898 62.4619 8.01953C62.8838 7.58008 63.3965 7.23438 64 6.98242C64.6035 6.72461 65.2803 6.5957 66.0303 6.5957C66.6338 6.5957 67.1758 6.69531 67.6562 6.89453C68.1367 7.08789 68.5439 7.31934 68.8779 7.58887L68.9922 6.88574H71.3037V16H68.9922L68.8691 15.3057C68.5293 15.5752 68.1191 15.8066 67.6387 16C67.1641 16.1934 66.6279 16.29 66.0303 16.29C65.2861 16.29 64.6123 16.1641 64.0088 15.9121C63.4053 15.6543 62.8896 15.3086 62.4619 14.875C62.04 14.4355 61.7148 13.9229 61.4863 13.3369C61.2578 12.7451 61.1436 12.1152 61.1436 11.4473ZM63.8594 11.4385C63.8594 11.8193 63.9238 12.165 64.0527 12.4756C64.1816 12.7861 64.3545 13.0527 64.5713 13.2754C64.7939 13.498 65.0518 13.6709 65.3447 13.7939C65.6436 13.9111 65.96 13.9697 66.2939 13.9697C66.6279 13.9697 66.9414 13.9111 67.2344 13.7939C67.5332 13.6709 67.791 13.501 68.0078 13.2842C68.2305 13.0615 68.4033 12.7949 68.5264 12.4844C68.6553 12.168 68.7197 11.8193 68.7197 11.4385C68.7197 11.0635 68.6553 10.7236 68.5264 10.4189C68.3975 10.1084 68.2217 9.84473 67.999 9.62793C67.7822 9.40527 67.5244 9.23535 67.2256 9.11816C66.9326 8.99512 66.6191 8.93359 66.2852 8.93359C65.9453 8.93359 65.626 8.99512 65.3271 9.11816C65.0342 9.23535 64.7793 9.40527 64.5625 9.62793C64.3457 9.84473 64.1729 10.1084 64.0439 10.4189C63.9209 10.7236 63.8594 11.0635 63.8594 11.4385ZM73.5361 11.4473C73.5361 10.7793 73.6475 10.1523 73.8701 9.56641C74.0928 8.97461 74.4121 8.45898 74.8281 8.01953C75.25 7.58008 75.7568 7.23145 76.3486 6.97363C76.9463 6.71582 77.6201 6.58691 78.3701 6.58691C78.9209 6.58691 79.4102 6.66309 79.8379 6.81543C80.2715 6.96777 80.6553 7.16406 80.9893 7.4043V3.61621H83.6963V16H81.3848L81.2529 15.2529C80.9131 15.5459 80.5029 15.7949 80.0225 16C79.5479 16.2051 79.0146 16.3076 78.4229 16.3076C77.6787 16.3076 77.0049 16.1816 76.4014 15.9297C75.7979 15.6719 75.2822 15.3232 74.8545 14.8838C74.4326 14.4385 74.1074 13.9229 73.8789 13.3369C73.6504 12.7451 73.5361 12.1152 73.5361 11.4473ZM76.2607 11.4385C76.2607 11.8193 76.3223 12.165 76.4453 12.4756C76.5742 12.7861 76.7471 13.0527 76.9639 13.2754C77.1865 13.498 77.4443 13.6709 77.7373 13.7939C78.0361 13.9111 78.3525 13.9697 78.6865 13.9697C79.0205 13.9697 79.334 13.9111 79.627 13.7939C79.9258 13.6709 80.1836 13.501 80.4004 13.2842C80.623 13.0615 80.7959 12.7949 80.9189 12.4844C81.0479 12.168 81.1123 11.8193 81.1123 11.4385C81.1123 11.0635 81.0479 10.7236 80.9189 10.4189C80.7959 10.1084 80.623 9.84473 80.4004 9.62793C80.1836 9.40527 79.9258 9.23535 79.627 9.11816C79.334 8.99512 79.0176 8.93359 78.6777 8.93359C78.3379 8.93359 78.0186 8.99512 77.7197 9.11816C77.4268 9.23535 77.1719 9.40527 76.9551 9.62793C76.7383 9.84473 76.5684 10.1084 76.4453 10.4189C76.3223 10.7236 76.2607 11.0635 76.2607 11.4385ZM86.3857 3.61621H89.1016V16H86.3857V3.61621ZM100.738 6.88574L95.4297 19.1289H92.4941L94.2168 15.4375L90.543 6.89453H93.54L95.5088 11.7461L95.6582 12.3086L97.8203 6.89453L100.738 6.88574Z" fill="#1E2C40"/>
<mask id="path-2-inside-1" fill="white">
<path fill-rule="evenodd" clip-rule="evenodd" d="M2.4177 1H0V21L2.24584 21L3.72414 21L14.3059 21C15.366 19.6776 16 17.9991 16 16.1724C16 14.2327 15.285 12.46 14.1042 11.1035C15.285 9.74692 16 7.97419 16 6.03447C16 4.11116 15.2971 2.35204 14.1341 1H3.72414H2.4177Z"/>
</mask>
<path d="M0 1V-1H-2V1H0ZM0 21H-2V23L1.69856e-06 23L0 21ZM2.24584 21L2.24584 19H2.24584L2.24584 21ZM3.72414 21L3.72414 23H3.72414L3.72414 21ZM14.3059 21V23H15.2659L15.8664 22.2509L14.3059 21ZM14.1042 11.1035L12.5957 9.79034L11.4527 11.1035L12.5957 12.4166L14.1042 11.1035ZM14.1341 1L15.6503 -0.304232L15.0519 -1H14.1341V1ZM0 3H2.4177V-1H0V3ZM2 21V1H-2V21H2ZM2.24584 19L-1.69856e-06 19L1.69856e-06 23L2.24584 23L2.24584 19ZM3.72414 19L2.24584 19L2.24584 23L3.72414 23L3.72414 19ZM14.3059 19L3.72414 19L3.72414 23L14.3059 23V19ZM14 16.1724C14 17.5281 13.5313 18.7687 12.7454 19.7491L15.8664 22.2509C17.2006 20.5865 18 18.4701 18 16.1724H14ZM12.5957 12.4166C13.4717 13.423 14 14.7335 14 16.1724H18C18 13.7319 17.0984 11.4971 15.6128 9.79035L12.5957 12.4166ZM14 6.03447C14 7.4734 13.4717 8.78395 12.5957 9.79034L15.6128 12.4166C17.0984 10.7099 18 8.47499 18 6.03447H14ZM12.6179 2.30423C13.4806 3.30718 14 4.60763 14 6.03447H18C18 3.61469 17.1136 1.3969 15.6503 -0.304232L12.6179 2.30423ZM3.72414 3H14.1341V-1H3.72414V3ZM2.4177 3H3.72414V-1H2.4177V3Z" fill="#3B5DD6" mask="url(#path-2-inside-1)"/>
<path d="M19.1667 1.06897C22.2012 3.72414 21.3046 9.2069 19.2357 11.1035C21.1322 13 22.2701 17.2414 19.4425 21" stroke="#3B5DD6" stroke-width="2"/>
</svg>
